<svg width="25" height="25" viewBox="0 0 25 25" fill="none" xmlns="http://www.w3.org/2000/svg">
<path d="M14.3981 12.3229L14.2214 12.4997L14.3981 12.6764L24.3921 22.6731L24.3923 22.6734C24.8676 23.1476 24.8678 23.9181 24.3921 24.3939L24.3917 24.3942C24.1554 24.6315 23.8444 24.75 23.5318 24.75C23.2205 24.75 22.9092 24.6316 22.6714 24.3939L12.6763 14.3972L12.4996 14.2204L12.3228 14.3972L2.32646 24.3939L2.32644 24.3939C2.08868 24.6317 1.77849 24.75 1.46615 24.75C1.15489 24.75 0.843548 24.6316 0.605852 24.3939L0.605833 24.3939C0.131393 23.9194 0.131383 23.1476 0.60584 22.6732L10.6022 12.6765L10.7789 12.4997L10.6021 12.3229L0.606016 2.32761C0.131231 1.85186 0.131484 1.08111 0.60584 0.606737L0.606028 0.606547C1.08039 0.131154 1.85186 0.131145 2.32627 0.606554L2.32648 0.606758L12.324 10.6022L12.5008 10.779L12.6775 10.6022L22.6727 0.606778C23.1484 0.131027 23.9188 0.131291 24.3931 0.606595L24.3935 0.606967C24.8687 1.08125 24.869 1.85172 24.3933 2.32748L14.3981 12.3229Z" fill="#FF5B79" stroke="white" stroke-width="0.5"/>
</svg>
