<svg width="24" height="24" viewBox="0 0 24 24" fill="none" xmlns="http://www.w3.org/2000/svg">
<path d="M23.8399 12.4475C21.6586 15.1051 17.0404 18.2065 12 18.2065C6.94163 18.2065 2.32322 15.084 0.160165 12.4475C-0.0533882 12.1872 -0.0533882 11.8124 0.160165 11.5521C2.3932 8.83021 7.02224 5.79303 12 5.79303C17.1547 5.79303 21.7533 9.00984 23.8399 11.552C24.0534 11.8124 24.0534 12.1872 23.8399 12.4475ZM16.795 11.9998C16.795 9.35586 14.644 7.2048 12 7.2048C9.35593 7.2048 7.20497 9.356 7.20497 11.9998C7.20497 14.6438 9.35598 16.7948 12 16.7948C14.6442 16.7948 16.795 14.6435 16.795 11.9998ZM1.65941 11.9996C2.45391 12.8254 4.36958 14.6074 7.05875 15.7512C5.37113 13.5337 5.37047 10.4678 7.05795 8.24946C5.0133 9.11605 3.11391 10.4852 1.65941 11.9996ZM16.9413 8.24842C18.6289 10.466 18.6295 13.5319 16.9421 15.7502C18.9867 14.8836 20.8861 13.5144 22.3406 12C21.5461 11.1742 19.6305 9.39224 16.9413 8.24842Z" fill="#D8D8D8"/>
<path d="M9.59998 11.9999C9.59998 10.6765 10.6766 9.59992 12 9.59992C13.3233 9.59992 14.4 10.6765 14.4 11.9999C14.4 13.3233 13.3233 14.3999 12 14.3999C10.6766 14.3999 9.59998 13.3233 9.59998 11.9999ZM12.9882 11.9999C12.9882 11.455 12.5449 11.0117 12 11.0117C11.455 11.0117 11.0117 11.455 11.0117 11.9999C11.0117 12.5448 11.455 12.9881 12 12.9881C12.5449 12.9881 12.9882 12.5448 12.9882 11.9999Z" fill="#D8D8D8"/>
<path d="M12.0001 20.9412C12.3899 20.9412 12.706 21.2572 12.706 21.6471V23.2941C12.706 23.684 12.3899 24 12.0001 24C11.6102 24 11.2942 23.684 11.2942 23.2941V21.6471C11.2942 21.2572 11.6102 20.9412 12.0001 20.9412Z" fill="#D8D8D8"/>
<path d="M16.2117 19.9971C16.5502 19.8041 16.9814 19.9218 17.1746 20.2606L18.114 21.9077C18.3071 22.2463 18.1893 22.6774 17.8506 22.8705C17.5118 23.0637 17.0809 22.9458 16.8877 22.6071L15.9483 20.96C15.7552 20.6214 15.8731 20.1903 16.2117 19.9971Z" fill="#D8D8D8"/>
<path d="M6.82532 20.2606C7.01845 19.922 7.44951 19.804 7.78819 19.9972C8.12683 20.1903 8.24476 20.6214 8.05163 20.96L7.11224 22.6071C6.91911 22.9457 6.48795 23.0637 6.14936 22.8705C5.81073 22.6774 5.6928 22.2463 5.88593 21.9077L6.82532 20.2606Z" fill="#D8D8D8"/>
<path d="M12.0001 3.05859C11.6102 3.05859 11.2942 2.74254 11.2942 2.35271V0.705636C11.2942 0.315798 11.6102 -0.00025177 12.0001 -0.00025177C12.3899 -0.00025177 12.706 0.315798 12.706 0.705636V2.35271C12.706 2.74254 12.3899 3.05859 12.0001 3.05859Z" fill="#D8D8D8"/>
<path d="M7.78818 4.00289C7.44955 4.19597 7.01849 4.07809 6.82531 3.73945L5.88593 2.0924C5.6928 1.75376 5.81073 1.32266 6.14936 1.12953C6.48804 0.936401 6.9191 1.05438 7.11223 1.39296L8.05162 3.04002C8.24479 3.37865 8.12682 3.80976 7.78818 4.00289Z" fill="#D8D8D8"/>
<path d="M17.1746 3.73943C16.9815 4.07811 16.5503 4.19595 16.2117 4.00291C15.8731 3.80978 15.7552 3.37867 15.9483 3.04004L16.8877 1.39298C17.0808 1.05434 17.5118 0.936368 17.8506 1.1295C18.1892 1.32263 18.3071 1.75373 18.114 2.09237L17.1746 3.73943Z" fill="#D8D8D8"/>
</svg>
